<?xml version="1.0" encoding="UTF-8"?>
<svg id="Layer_2" xmlns="http://www.w3.org/2000/svg" viewBox="0 0 108.64 108.05">
  <defs>
    <style>
      .cls-1 {
        fill: #807d20;
      }
    </style>
  </defs>
  <g id="evC9YaPwKAS1" shape-rendering="geometricPrecision" text-rendering="geometricPrecision">
    <g id="evC9YaPwKAS2">
      <path class="cls-1" d="M44.98,8.3c-2.73.55-5.37,1.33-7.9,2.33l-3.98-6.8-14.02,8.13,4.17,7.12c-2.06,1.81-3.95,3.8-5.67,5.94l-6.89-3.91-8.05,14.01,7.18,4.08c-.86,2.57-1.51,5.23-1.92,7.97l-7.91.03.07,16.14,8.28-.03c.56,2.71,1.34,5.34,2.34,7.86l-6.83,3.96,8.17,13.94,7.16-4.15c1.82,2.05,3.82,3.94,5.98,5.63l-3.94,6.84,14.09,8.01,4.1-7.14c2.58.86,5.26,1.5,8.01,1.9l.03,7.87,16.23-.07-.03-8.23c2.73-.55,5.37-1.33,7.9-2.33l3.98,6.8,14.02-8.13-4.17-7.12c2.06-1.81,3.95-3.8,5.67-5.94l6.89,3.91,8.06-14.02-7.18-4.08c.86-2.56,1.51-5.23,1.92-7.97l7.91-.03-.07-16.14-8.28.04c-.55-2.71-1.34-5.34-2.34-7.86l6.84-3.96-8.17-13.94-7.15,4.15c-1.83-2.05-3.82-3.94-5.97-5.64l3.92-6.84-14.09-8.01-4.11,7.15c-2.58-.86-5.26-1.5-8.01-1.9l-.03-7.87-16.23.07.03,8.24s0,0,0,0ZM90.31,49.57h-19.41c-.1-.35-.21-.69-.32-1.03-.96-2.77-2.64-5.26-4.85-7.23-1.16-1.02-2.46-1.9-3.89-2.6-.96-.47-1.97-.85-3.04-1.14v-19.35c7.93.97,15.28,4.49,21.05,10.19,5.84,5.77,9.47,13.15,10.45,21.16,0,0,0,0,0,0ZM41.18,51.36c.12-.61.3-1.22.49-1.79,1.36-3.87,4.42-6.79,8.16-8.08,2.2-.77,4.63-.97,7.09-.47.65.13,1.27.3,1.87.52,3.84,1.37,6.76,4.37,8.1,8.03.75,2.04,1,4.29.65,6.56-.02.18-.06.38-.09.56-.12.61-.29,1.22-.49,1.79-1.36,3.86-4.41,6.79-8.16,8.08-2.2.76-4.63.97-7.09.48-.65-.13-1.28-.31-1.87-.53-3.84-1.37-6.76-4.37-8.1-8.03-.75-2.05-1-4.29-.65-6.56.02-.18.07-.37.1-.56,0,0,0,0,0,0ZM58.8,89.82v-19.29c.39-.1.77-.22,1.14-.34,2.79-.94,5.29-2.59,7.25-4.77,1.03-1.14,1.9-2.42,2.6-3.84.48-.97.87-2.01,1.15-3.09h19.36c-.97,7.89-4.51,15.2-10.24,20.94-5.79,5.81-13.22,9.42-21.26,10.4h0ZM18.34,58.48h19.41c.1.34.21.69.32,1.02.97,2.77,2.64,5.27,4.85,7.23,1.16,1.03,2.46,1.91,3.89,2.6.96.47,1.98.85,3.04,1.14v19.35c-7.93-.96-15.28-4.49-21.05-10.18-5.84-5.77-9.47-13.16-10.45-21.16,0,0,0,0,0,0ZM49.84,18.23v19.29c-.39.1-.77.22-1.14.34-2.79.94-5.29,2.59-7.25,4.77-1.03,1.14-1.91,2.43-2.6,3.84-.48.98-.86,2.01-1.15,3.09h-19.36c.97-7.89,4.51-15.2,10.24-20.94,5.79-5.81,13.22-9.42,21.26-10.4Z"/>
    </g>
  </g>
</svg>